<svg version="1.0" xmlns="http://www.w3.org/2000/svg" width="70px" height="40px" viewBox="0 0 756.000000 303.000000" preserveAspectRatio="xMidYMid meet">
<metadata>
Created by potrace 1.16, written by Peter Selinger 2001-2019
</metadata>
<g transform="translate(0.000000,303.000000) scale(0.100000,-0.100000)" fill="#164353" stroke="none">
<path d="M2660 2813 c-125 -304 -196 -527 -206 -648 -7 -84 13 -188 51 -268
31 -68 112 -144 193 -184 48 -24 69 -28 137 -28 94 0 155 21 258 89 78 51 76
65 20 -129 -70 -245 -185 -508 -284 -651 -173 -250 -398 -363 -584 -293 -96
36 -152 101 -180 209 l-11 45 -112 26 c-128 30 -115 38 -131 -84 -24 -172 -8
-358 40 -479 94 -238 367 -382 634 -334 261 46 416 192 590 551 134 276 244
616 366 1126 99 420 175 618 340 891 33 54 59 100 59 103 0 3 -113 4 -251 3
l-250 -3 -44 -111 c-149 -380 -312 -577 -431 -520 -24 11 -36 25 -43 53 -25
92 62 325 227 608 23 38 40 70 39 71 -4 4 -347 84 -361 84 -8 0 -34 -49 -66
-127z"></path>
<path d="M7375 2891 c-18 -29 -205 -65 -425 -81 -91 -7 -178 -19 -214 -30
-132 -41 -256 -157 -307 -287 -19 -47 -23 -78 -23 -166 l-1 -107 -42 -49 c-44
-51 -95 -81 -137 -81 -52 0 -48 78 14 286 63 208 58 277 -23 321 -41 23 -226
24 -305 1 l-52 -15 6 93 7 94 -110 0 -110 0 -6 -172 c-7 -198 -25 -313 -66
-427 -46 -126 -116 -211 -174 -211 -43 0 -95 39 -121 92 -68 140 -28 339 109
535 25 35 45 66 45 68 0 3 -52 5 -115 5 l-115 0 -35 -47 c-57 -77 -122 -220
-140 -308 -9 -45 -15 -115 -14 -160 3 -95 -3 -118 -38 -140 -55 -37 -127 -15
-160 48 -37 71 -13 261 64 492 l39 115 -141 0 -142 0 -17 -79 c-9 -44 -33
-112 -52 -151 -41 -81 -142 -195 -151 -170 -4 8 -21 30 -39 48 -63 63 -168 33
-195 -58 -15 -49 -6 -81 32 -125 25 -28 30 -41 24 -62 -17 -71 -104 -143 -170
-143 -101 0 -154 116 -110 241 54 153 189 246 398 272 l87 11 0 115 0 114
-112 -6 c-138 -7 -217 -27 -328 -79 -114 -55 -214 -153 -265 -259 -104 -220
-98 -418 16 -543 160 -175 412 -183 580 -16 74 73 99 138 99 256 l0 84 33 20
c17 11 35 20 38 20 4 0 6 -55 5 -122 -2 -192 37 -284 145 -343 117 -63 259
-29 391 93 l65 61 22 -23 c13 -13 50 -37 84 -52 55 -26 73 -29 162 -29 90 0
106 3 160 29 133 65 225 201 270 401 13 59 29 113 36 121 29 36 125 70 146 53
21 -18 16 -48 -28 -170 -82 -231 -102 -392 -56 -459 31 -46 81 -70 144 -70
122 0 229 76 363 259 41 56 78 101 81 101 4 0 -4 -28 -16 -62 -49 -136 -41
-232 29 -363 65 -121 88 -190 89 -265 2 -193 -143 -291 -663 -447 -10 -3 -2
-15 28 -41 22 -20 199 -181 392 -357 193 -176 354 -321 359 -323 10 -3 181
226 267 358 87 133 177 310 208 408 35 112 41 187 22 262 -34 132 -111 228
-297 371 -135 104 -163 130 -186 173 -20 38 -13 102 18 162 23 45 27 47 95 64
40 10 96 31 125 46 76 38 168 134 210 219 32 66 34 75 34 175 0 58 -3 114 -8
126 -7 20 -3 21 58 27 71 7 100 18 114 45 15 28 26 222 13 222 -6 0 -13 -4
-17 -9z m-492 -353 c34 -17 46 -39 47 -80 0 -65 -74 -128 -150 -128 -37 0 -90
47 -90 80 0 88 120 167 193 128z"></path>
<path d="M832 2830 l-33 -20 29 -38 c17 -20 42 -48 57 -62 37 -34 118 -146
145 -199 12 -24 28 -71 35 -105 l13 -61 1 61 c1 65 -25 167 -61 239 -34 67
-129 205 -141 205 -7 0 -27 -9 -45 -20z"></path>
<path d="M676 2632 l-27 -29 48 -18 c141 -53 268 -133 304 -192 13 -20 24 -32
26 -26 8 22 -40 98 -94 150 -50 49 -194 143 -218 143 -6 0 -24 -13 -39 -28z"></path>
<path d="M1361 2415 c-100 -28 -206 -102 -256 -179 -17 -25 -17 -27 9 -61 110
-144 171 -423 164 -747 -2 -93 -1 -168 2 -168 3 0 19 23 35 51 44 74 123 140
246 205 184 96 233 140 293 264 29 62 31 71 31 185 0 142 -16 204 -75 293 -43
65 -116 121 -190 148 -65 23 -193 27 -259 9z"></path>
<path d="M515 2356 c-174 -40 -296 -125 -373 -258 -71 -124 -88 -327 -38 -471
57 -169 156 -269 322 -328 84 -30 239 -37 335 -15 67 15 79 15 133 1 33 -9 74
-25 91 -35 39 -24 114 -103 140 -148 11 -17 24 -32 31 -32 30 0 65 206 71 425
8 265 -24 454 -100 600 -61 114 -181 209 -317 249 -77 23 -221 29 -295 12z
m242 -130 c200 -53 301 -185 357 -466 20 -101 36 -316 36 -474 l-1 -131 -19
35 c-32 61 -87 115 -148 148 -82 44 -138 53 -245 39 -166 -20 -319 24 -415
120 -158 158 -161 455 -5 611 107 107 293 157 440 118z"></path>
<path d="M3631 1413 c-40 -306 -235 -773 -398 -954 -21 -23 -56 -55 -77 -71
l-39 -28 235 0 234 0 42 72 c73 129 149 300 197 443 54 160 67 186 107 209 97
58 166 -25 140 -168 -22 -117 -110 -310 -218 -479 -24 -37 -44 -70 -44 -72 0
-3 80 -5 178 -5 l179 0 56 118 c73 153 122 297 152 446 26 131 48 166 102 166
36 0 90 -57 99 -106 17 -89 -34 -263 -138 -476 -37 -77 -68 -142 -68 -144 0
-3 91 -3 202 -2 l202 3 23 80 c67 232 103 508 84 653 -15 118 -35 172 -82 226
-53 60 -110 81 -219 81 -91 0 -153 -18 -222 -62 l-36 -24 -46 35 c-49 37 -128
66 -181 66 -29 0 -93 -16 -136 -34 -15 -7 -16 0 -12 58 l6 66 -155 0 -155 0
-12 -97z"></path>
<path d="M5323 1466 c-182 -59 -305 -241 -320 -471 -11 -181 43 -343 151 -450
69 -69 128 -100 230 -122 93 -20 254 -12 356 17 86 24 216 86 285 134 l46 33
-97 114 c-53 63 -110 129 -125 147 l-29 32 -62 -51 c-78 -63 -186 -116 -256
-125 -67 -8 -129 14 -171 61 -29 34 -60 109 -49 121 3 3 133 46 289 96 156 50
287 94 292 98 12 10 -30 120 -68 177 -49 74 -111 129 -183 165 -53 26 -76 31
-155 34 -60 3 -106 -1 -134 -10z m212 -207 c71 -62 71 -62 -83 -113 -75 -25
-140 -46 -145 -46 -4 0 -7 19 -7 43 0 83 66 147 152 147 39 0 54 -6 83 -31z"></path>
</g>
</svg>