<?xml version="1.0" standalone="no"?>
<!DOCTYPE svg PUBLIC "-//W3C//DTD SVG 20010904//EN"
 "http://www.w3.org/TR/2001/REC-SVG-20010904/DTD/svg10.dtd">
<svg version="1.0" xmlns="http://www.w3.org/2000/svg"
 width="512.000000pt" height="512.000000pt" viewBox="0 0 512.000000 512.000000"
 preserveAspectRatio="xMidYMid meet">
<metadata>
Created by potrace 1.16, written by Peter Selinger 2001-2019
</metadata>
<g transform="translate(0.000000,512.000000) scale(0.100000,-0.100000)"
fill="#164353" stroke="none">
<path d="M1604 4686 c-34 -8 -81 -24 -104 -36 -62 -32 -142 -115 -176 -185
l-29 -60 -3 -347 -3 -348 201 0 200 0 0 100 0 100 1005 0 1005 0 -2 -1377 -3
-1378 -1000 0 -1000 0 -3 97 -3 98 -200 0 -200 0 3 -343 3 -342 33 -67 c42
-85 105 -148 190 -190 l67 -33 1110 0 1110 0 70 34 c84 41 149 106 190 187
l30 59 3 1855 c2 2058 7 1906 -65 2010 -49 69 -122 124 -198 150 -58 19 -97
20 -1115 25 -886 4 -1065 3 -1116 -9z"/>
<path d="M1092 3125 l3 -196 347 0 c191 0 349 -3 352 -8 3 -4 -29 -41 -72 -82
-92 -87 -476 -464 -800 -783 l-232 -230 139 -140 140 -140 397 390 c218 214
469 459 558 545 l161 156 5 -346 5 -346 200 0 200 0 0 685 0 685 -703 3 -702
2 2 -195z"/>
</g>
</svg>
