<?xml version="1.0" encoding="UTF-8" standalone="no"?>
<svg
   xmlns:dc="http://purl.org/dc/elements/1.1/"
   xmlns:cc="http://creativecommons.org/ns#"
   xmlns:rdf="http://www.w3.org/1999/02/22-rdf-syntax-ns#"
   xmlns:svg="http://www.w3.org/2000/svg"
   xmlns="http://www.w3.org/2000/svg"
   xmlns:sodipodi="http://sodipodi.sourceforge.net/DTD/sodipodi-0.dtd"
   xmlns:inkscape="http://www.inkscape.org/namespaces/inkscape"
   aria-hidden="true"
   focusable="false"
   data-prefix="fad"
   data-icon="chess-queen-alt"
   class="svg-inline--fa fa-chess-queen-alt fa-w-8"
   role="img"
   viewBox="0 0 256 512"
   version="1.1"
   id="svg881"
   sodipodi:docname="chess-queen-alt-duotone.svg"
   inkscape:version="1.0.1 (3bc2e813f5, 2020-09-07)">
  <metadata
     id="metadata887">
    <rdf:RDF>
      <cc:Work
         rdf:about="">
        <dc:format>image/svg+xml</dc:format>
        <dc:type
           rdf:resource="http://purl.org/dc/dcmitype/StillImage" />
      </cc:Work>
    </rdf:RDF>
  </metadata>
  <defs
     id="defs885" />
  <sodipodi:namedview
     pagecolor="#ffffff"
     bordercolor="#666666"
     borderopacity="1"
     objecttolerance="10"
     gridtolerance="10"
     guidetolerance="10"
     inkscape:pageopacity="0"
     inkscape:pageshadow="2"
     inkscape:window-width="1920"
     inkscape:window-height="1017"
     id="namedview883"
     showgrid="false"
     inkscape:zoom="1.6601562"
     inkscape:cx="61.44"
     inkscape:cy="183.71765"
     inkscape:window-x="-8"
     inkscape:window-y="-8"
     inkscape:window-maximized="1"
     inkscape:current-layer="svg881" />
  <g
     class="fa-group"
     id="g879"
     style="fill:#d63384;fill-opacity:1">
    <path
       class="fa-secondary"
       fill="currentColor"
       d="M256 473.89V496a16 16 0 0 1-16 16H16a16 16 0 0 1-16-16v-22.11a16 16 0 0 1 8.85-14.31L32 448v-16a16 16 0 0 1 16-16h160a16 16 0 0 1 16 16v16l23.16 11.58a16 16 0 0 1 8.84 14.31z"
       opacity="0.4"
       id="path875"
       style="fill:#d63384;fill-opacity:1" />
    <path
       class="fa-primary"
       fill="currentColor"
       d="M128 48a24 24 0 1 0-24-24 24 24 0 0 0 24 24zm102.84 39.65l-10.06-6.71c-3.13-2.08-7.12-1-9.38 2a20.05 20.05 0 0 1-19.89 7.67c-9.74-1.81-16.35-11-16.35-21a5.65 5.65 0 0 0-5.64-5.61h-16.33a5.45 5.45 0 0 0-5.41 4.17 20.22 20.22 0 0 1-39.56 0 5.45 5.45 0 0 0-5.41-4.17H86.49a5.65 5.65 0 0 0-5.65 5.64c0 10.82-8 20.53-18.81 21.26a20 20 0 0 1-17.49-8.06 6.81 6.81 0 0 0-9.3-1.91l-10.08 6.72a6.73 6.73 0 0 0-2.29 8.62L67.37 192H64a16 16 0 0 0-16 16v16a16 16 0 0 0 16 16h16v14a535.76 535.76 0 0 1-16 130h128a535.76 535.76 0 0 1-16-130v-14h16a16 16 0 0 0 16-16v-16a16 16 0 0 0-16-16h-3.37l44.5-95.73a6.73 6.73 0 0 0-2.29-8.62z"
       id="path877"
       style="fill:#d63384;fill-opacity:1" />
  </g>
</svg>
