<?xml version="1.0" standalone="no"?>
<!DOCTYPE svg PUBLIC "-//W3C//DTD SVG 20010904//EN"
 "http://www.w3.org/TR/2001/REC-SVG-20010904/DTD/svg10.dtd">
<svg version="1.0" xmlns="http://www.w3.org/2000/svg"
 width="512.000000pt" height="512.000000pt" viewBox="0 0 512.000000 512.000000"
 preserveAspectRatio="xMidYMid meet">
<metadata>
Created by potrace 1.16, written by Peter Selinger 2001-2019
</metadata>
<g transform="translate(0.000000,512.000000) scale(0.100000,-0.100000)"
fill="#164353" stroke="none">
<path d="M2097 4602 l-457 -458 0 -48 c0 -41 5 -52 31 -77 35 -32 74 -37 117
-15 15 8 169 157 342 330 l315 316 5 -1426 5 -1426 33 -29 c38 -34 93 -39 131
-13 53 38 51 -26 51 1491 l0 1407 333 -332 c300 -299 336 -332 366 -332 39 0
87 23 101 49 5 11 10 39 10 63 l0 42 -457 458 c-252 252 -460 458 -463 458 -3
0 -211 -206 -463 -458z"/>
<path d="M710 1745 l0 -1745 1850 0 1850 0 0 1745 0 1746 -535 -3 -535 -3 -32
-33 c-26 -26 -32 -40 -32 -70 2 -49 27 -88 66 -101 20 -7 174 -11 439 -11
l409 0 0 -1530 0 -1530 -1630 0 -1630 0 0 1530 0 1530 410 0 c460 0 469 1 495
64 26 62 -4 129 -67 147 -19 5 -254 9 -545 9 l-513 0 0 -1745z"/>
</g>
</svg>
