<?xml version="1.0" encoding="UTF-8" standalone="no"?>
<svg
   xmlns:dc="http://purl.org/dc/elements/1.1/"
   xmlns:cc="http://creativecommons.org/ns#"
   xmlns:rdf="http://www.w3.org/1999/02/22-rdf-syntax-ns#"
   xmlns:svg="http://www.w3.org/2000/svg"
   xmlns="http://www.w3.org/2000/svg"
   xmlns:sodipodi="http://sodipodi.sourceforge.net/DTD/sodipodi-0.dtd"
   xmlns:inkscape="http://www.inkscape.org/namespaces/inkscape"
   aria-hidden="true"
   focusable="false"
   data-prefix="fad"
   data-icon="chess-king-alt"
   class="svg-inline--fa fa-chess-king-alt fa-w-10"
   role="img"
   viewBox="0 0 320 512"
   version="1.1"
   id="svg853"
   sodipodi:docname="chess-king-alt-duotone.svg"
   inkscape:version="1.0.1 (3bc2e813f5, 2020-09-07)">
  <metadata
     id="metadata859">
    <rdf:RDF>
      <cc:Work
         rdf:about="">
        <dc:format>image/svg+xml</dc:format>
        <dc:type
           rdf:resource="http://purl.org/dc/dcmitype/StillImage" />
      </cc:Work>
    </rdf:RDF>
  </metadata>
  <defs
     id="defs857" />
  <sodipodi:namedview
     pagecolor="#ffffff"
     bordercolor="#666666"
     borderopacity="1"
     objecttolerance="10"
     gridtolerance="10"
     guidetolerance="10"
     inkscape:pageopacity="0"
     inkscape:pageshadow="2"
     inkscape:window-width="1920"
     inkscape:window-height="1017"
     id="namedview855"
     showgrid="false"
     inkscape:zoom="1.6601562"
     inkscape:cx="81.392941"
     inkscape:cy="189.45232"
     inkscape:window-x="-8"
     inkscape:window-y="-8"
     inkscape:window-maximized="1"
     inkscape:current-layer="g851" />
  <g
     class="fa-group"
     id="g851"
     style="fill:#17c1e8;fill-opacity:1">
    <path
       class="fa-secondary"
       fill="currentColor"
       d="M279.16 459.58L256 448v-16a16 16 0 0 0-16-16H80a16 16 0 0 0-16 16v16l-23.15 11.58A16 16 0 0 0 32 473.89V496a16 16 0 0 0 16 16h224a16 16 0 0 0 16-16v-22.11a16 16 0 0 0-8.84-14.31z"
       opacity="0.4"
       id="path847"
       style="fill:#17c1e8;fill-opacity:1" />
    <path
       class="fa-primary"
       fill="currentColor"
       d="M106 208H96a16 16 0 0 0-16 16v16a16 16 0 0 0 16 16h15.94A535.78 535.78 0 0 1 96 384h128a535.78 535.78 0 0 1-15.94-128H224a16 16 0 0 0 16-16v-16a16 16 0 0 0-16-16h-10l33.89-90.38a16 16 0 0 0-15-21.62H176V64h24a8 8 0 0 0 8-8V40a8 8 0 0 0-8-8h-24V8a8 8 0 0 0-8-8h-16a8 8 0 0 0-8 8v24h-24a8 8 0 0 0-8 8v16a8 8 0 0 0 8 8h24v32H87.09a16 16 0 0 0-15 21.62z"
       id="path849"
       style="fill:#0cb0d0;fill-opacity:1" />
  </g>
</svg>
